<svg width="15" height="15" viewBox="0 0 15 15" fill="none" xmlns="http://www.w3.org/2000/svg">
<path d="M13.5 0H0.5625C0.251367 0 0 0.251367 0 0.5625V13.5C0 13.8111 0.251367 14.0625 0.5625 14.0625H13.5C13.8111 14.0625 14.0625 13.8111 14.0625 13.5V0.5625C14.0625 0.251367 13.8111 0 13.5 0ZM11.8758 4.10449H10.7525C9.87187 4.10449 9.70137 4.52285 9.70137 5.13809V6.49336H11.8037L11.5295 8.61504H9.70137V14.0625H7.50938V8.6168H5.67598V6.49336H7.50938V4.92891C7.50938 3.11309 8.61856 2.12344 10.2393 2.12344C11.0162 2.12344 11.6824 2.18145 11.8775 2.20781V4.10449H11.8758Z" fill="#173148"/>
</svg>
