<svg width="16" height="16" viewBox="0 0 16 16" fill="none" xmlns="http://www.w3.org/2000/svg">
<path d="M1.9203 0C0.888577 0 0.0493164 0.839318 0.0493164 1.87098C0.0493164 2.90265 0.888229 3.74191 1.9203 3.74191C2.95237 3.74191 3.79128 2.90265 3.79128 1.87098C3.79128 0.839318 2.95197 0 1.9203 0Z" fill="#173148"/>
<path d="M7.97548 0C6.94381 0 6.10449 0.839318 6.10449 1.87098C6.10449 2.90265 6.94381 3.74191 7.97548 3.74191C9.0072 3.74191 9.84663 2.90265 9.84663 1.87098C9.84663 0.839318 9.00755 0 7.97548 0Z" fill="#173148"/>
<path d="M14.1288 3.74197C15.1603 3.74197 15.9998 2.90271 15.9998 1.87104C15.9998 0.839376 15.161 0 14.1288 0C13.0966 0 12.2578 0.839318 12.2578 1.87098C12.2578 2.90265 13.0972 3.74197 14.1288 3.74197Z" fill="#173148"/>
<path d="M1.87133 9.7372C2.903 9.7372 3.74249 8.89811 3.74249 7.86628C3.74249 6.83438 2.903 5.99512 1.87133 5.99512C0.839666 5.99512 0 6.83444 0 7.86628C0 8.89811 0.839666 9.7372 1.87133 9.7372Z" fill="#173148"/>
<path d="M7.92665 9.7372C8.95814 9.7372 9.79763 8.89811 9.79763 7.86628C9.79763 6.83438 8.95883 5.99512 7.92665 5.99512C6.89463 5.99512 6.05566 6.83438 6.05566 7.86628C6.05566 8.89811 6.89498 9.7372 7.92665 9.7372Z" fill="#173148"/>
<path d="M14.0807 9.7372C15.1126 9.7372 15.9516 8.89811 15.9516 7.86628C15.9516 6.83438 15.1126 5.99512 14.0807 5.99512C13.0488 5.99512 12.209 6.83438 12.209 7.86628C12.209 8.89811 13.0485 9.7372 14.0807 9.7372Z" fill="#173148"/>
<path d="M1.9143 11.9717C0.882635 11.9717 0.0429688 12.8108 0.0429688 13.8427C0.0429688 14.8742 0.882635 15.7137 1.9143 15.7137C2.94597 15.7137 3.78523 14.8746 3.78523 13.8427C3.78523 12.8108 2.94597 11.9717 1.9143 11.9717Z" fill="#173148"/>
<path d="M7.96996 11.9717C6.93824 11.9717 6.09863 12.8108 6.09863 13.8427C6.09863 14.8742 6.93795 15.7137 7.96996 15.7137C9.00146 15.7137 9.84089 14.8746 9.84089 13.8427C9.84089 12.8108 9.00146 11.9717 7.96996 11.9717Z" fill="#173148"/>
<path d="M14.1229 11.9717C13.0914 11.9717 12.252 12.8108 12.252 13.8427C12.252 14.8742 13.0914 15.7137 14.1229 15.7137C15.1548 15.7137 15.9939 14.8746 15.9939 13.8427C15.9939 12.8108 15.1544 11.9717 14.1229 11.9717Z" fill="#173148"/>
</svg>
