<svg width="15" height="15" viewBox="0 0 15 15" fill="none" xmlns="http://www.w3.org/2000/svg">
<path d="M13.5 0H0.5625C0.251367 0 0 0.251367 0 0.5625V13.5C0 13.8111 0.251367 14.0625 0.5625 14.0625H13.5C13.8111 14.0625 14.0625 13.8111 14.0625 13.5V0.5625C14.0625 0.251367 13.8111 0 13.5 0ZM4.17129 11.983H2.08477V5.27168H4.17129V11.983ZM3.12891 4.3541C2.88971 4.3541 2.65589 4.28317 2.45701 4.15028C2.25813 4.0174 2.10312 3.82852 2.01159 3.60753C1.92005 3.38655 1.89611 3.14338 1.94277 2.90879C1.98943 2.67419 2.10461 2.4587 2.27375 2.28957C2.44288 2.12044 2.65837 2.00525 2.89297 1.95859C3.12756 1.91193 3.37073 1.93587 3.59171 2.02741C3.8127 2.11894 4.00158 2.27395 4.13446 2.47283C4.26735 2.67171 4.33828 2.90553 4.33828 3.14473C4.33652 3.8127 3.79512 4.3541 3.12891 4.3541ZM11.983 11.983H9.89824V8.71875C9.89824 7.94004 9.88418 6.93984 8.81367 6.93984C7.7291 6.93984 7.56211 7.78711 7.56211 8.6625V11.983H5.4791V5.27168H7.47949V6.18926H7.50762C7.78535 5.66191 8.46563 5.10469 9.48164 5.10469C11.5945 5.10469 11.983 6.49512 11.983 8.30215V11.983Z" fill="#173148"/>
</svg>
