<svg width="116" height="36" viewBox="0 0 116 36" fill="none" xmlns="http://www.w3.org/2000/svg">
<path d="M23.9395 0.144104H29.544V1.01981H24.9392V3.52652H29.1207V4.37304H24.9392V7.15706H29.6826V8.0802H23.9395V0.144104Z" fill="#173148"/>
<path d="M30.7483 0.144104H36.3528V1.01981H31.7481V3.52652H35.9332V4.37304H31.7481V7.15706H36.4915V8.0802H30.7483V0.144104Z" fill="#173148"/>
<path d="M37.0535 5.39469H38.0277C38.1627 6.73744 38.9837 7.43435 40.4833 7.43435C41.578 7.43435 42.3697 6.93447 42.3697 5.9493C42.3697 4.85466 41.4138 4.6029 39.9944 4.29275C38.575 3.9826 37.3965 3.58489 37.3965 2.10348C37.3965 0.793569 38.4911 0.00543213 40.0929 0.00543213C42.0815 0.00543213 42.9025 1.01614 43.1032 2.47931H42.1581C42.0158 1.34818 41.2824 0.782625 40.1184 0.782625C39.0238 0.782625 38.3305 1.23872 38.3305 2.0597C38.3305 2.9573 39.2172 3.22366 40.4067 3.45718C41.9465 3.76733 43.3586 4.1468 43.3586 5.93106C43.3586 7.41976 42.1472 8.25168 40.4395 8.25168C38.2065 8.23344 37.141 6.99285 37.0535 5.39469Z" fill="#173148"/>
<path d="M43.811 0.144104H50.0942V1.01981H47.4525V8.0802H46.4564V1.01981H43.811V0.144104Z" fill="#173148"/>
<path d="M51.0901 0.144104H52.0898V8.0802H51.0901V0.144104Z" fill="#173148"/>
<path d="M58 0H58.9998V3.94069L62.904 0H64.1591L60.9519 3.17444L64.4255 7.9361H63.2615L60.2732 3.84947L58.9998 5.12654V7.9361H58V0Z" fill="#173148"/>
<path d="M65.2764 0H70.8846V0.875706H66.2761V3.38607H70.4613V4.22894H66.2761V7.00566H71.0196V7.9288H65.2764V0Z" fill="#173148"/>
<path d="M72.0879 0H77.6924V0.875706H73.084V3.38607H77.2692V4.22894H73.084V7.00566H77.8274V7.9288H72.0879V0Z" fill="#173148"/>
<path d="M78.8965 0H79.8926V7.00566H84.0559V7.9288H78.8965V0Z" fill="#173148"/>
<path d="M85.0337 0H90.6382V0.875706H86.0335V3.38607H90.2186V4.22894H86.0335V7.00566H90.7769V7.9288H85.0337V0Z" fill="#173148"/>
<path d="M24 12.2494H24.9998V20.1855H24V12.2494Z" fill="#173148"/>
<path d="M26.6274 12.2494H27.6819L31.3015 17.7663C31.5679 18.175 31.878 18.788 31.878 18.788H31.8999V12.2494H32.834V20.1855H31.8123L28.1636 14.6576C27.9081 14.2672 27.5761 13.6688 27.5761 13.6688H27.5542V20.1855H26.6201L26.6274 12.2494Z" fill="#173148"/>
<path d="M33.9761 17.5001H34.9539C35.089 18.8428 35.9099 19.5398 37.4059 19.5398C38.5006 19.5398 39.296 19.0435 39.296 18.0547C39.296 16.9601 38.34 16.712 36.9206 16.4018C35.5013 16.0917 34.3227 15.672 34.3227 14.1906C34.3227 12.8807 35.4173 12.0926 37.0192 12.0926C39.0077 12.0926 39.8287 13.1033 40.0258 14.5665H39.0844C38.9384 13.4353 38.2087 12.8698 37.0411 12.8698C35.9647 12.8698 35.2531 13.3259 35.2531 14.1469C35.2531 15.0445 36.1435 15.3108 37.3293 15.5443C38.8727 15.8545 40.2848 16.234 40.2848 18.0219C40.2848 19.5069 39.0734 20.3425 37.3658 20.3425C35.1218 20.3425 34.0673 19.0983 33.9761 17.5001Z" fill="#173148"/>
<path d="M40.7373 12.2494H47.0205V13.1251H44.3788V20.1855H43.379V13.1251H40.7373V12.2494Z" fill="#173148"/>
<path d="M48.0127 12.2494H49.0125V20.1855H48.0127V12.2494Z" fill="#173148"/>
<path d="M49.9902 12.2494H56.2844V13.1251H53.6427V20.1855H52.6356V13.1251H49.9939L49.9902 12.2494Z" fill="#173148"/>
<path d="M57.1929 17.6204V12.2494H58.1926V17.5219C58.1926 18.8756 58.9589 19.4521 60.2688 19.4521C61.5203 19.4521 62.2756 18.8756 62.2756 17.5219V12.2494H63.2754V17.6204C63.2754 19.5397 61.9326 20.3059 60.236 20.3059C58.5393 20.3059 57.1929 19.5397 57.1929 17.6204Z" fill="#173148"/>
<path d="M64.7539 17.6204V12.2494H65.7719V17.5219C65.7719 18.8756 66.5382 19.4521 67.8481 19.4521C69.158 19.4521 69.8549 18.8756 69.8549 17.5219V12.2494H70.8547V17.6204C70.8547 19.5397 69.5119 20.3059 67.8152 20.3059C66.1186 20.3059 64.7539 19.5397 64.7539 17.6204Z" fill="#173148"/>
<path d="M71.7554 12.2494H78.0386V13.1251H75.3969V20.1855H74.3971V13.1251H71.7554V12.2494Z" fill="#173148"/>
<path d="M23.858 24.2706H24.903V27.6476H29.039V24.2706H30.084V32.1246H29.039V28.5276H24.903V32.1246H23.858V24.2706ZM32.9735 22.5216H33.9635V23.6656H32.9735V22.5216ZM35.0415 22.5216H36.0315V23.6656H35.0415V22.5216ZM33.1495 28.8796H35.8115L34.5025 25.2166H34.4805L33.1495 28.8796ZM33.9305 24.2706H35.0855L38.1545 32.1246H36.9995L36.1415 29.7596H32.8195L31.9395 32.1246H30.8725L33.9305 24.2706ZM40.1063 22.5216H41.0963V23.6656H40.1063V22.5216ZM42.1743 22.5216H43.1643V23.6656H42.1743V22.5216ZM40.2823 28.8796H42.9443L41.6353 25.2166H41.6133L40.2823 28.8796ZM41.0633 24.2706H42.2183L45.2873 32.1246H44.1323L43.2743 29.7596H39.9523L39.0723 32.1246H38.0053L41.0633 24.2706ZM46.0621 24.2706H47.1071V31.2446H51.2651V32.1246H46.0621V24.2706ZM53.2194 31.2446H54.9574C55.0747 31.2446 55.2214 31.2373 55.3974 31.2226C55.5734 31.2006 55.7604 31.1566 55.9584 31.0906C56.1564 31.0173 56.3507 30.9146 56.5414 30.7826C56.7394 30.6506 56.9154 30.471 57.0694 30.2436C57.2234 30.0163 57.3481 29.734 57.4434 29.3966C57.5461 29.052 57.5974 28.6376 57.5974 28.1536C57.5974 27.6843 57.5497 27.2663 57.4544 26.8996C57.3664 26.5256 57.2161 26.2103 57.0034 25.9536C56.7981 25.6896 56.5304 25.4916 56.2004 25.3596C55.8704 25.2203 55.4634 25.1506 54.9794 25.1506H53.2194V31.2446ZM52.1744 24.2706H54.8694C56.0794 24.2706 57.0107 24.5786 57.6634 25.1946C58.3161 25.8106 58.6424 26.7493 58.6424 28.0106C58.6424 28.6706 58.5691 29.2573 58.4224 29.7706C58.2757 30.2766 58.0484 30.7056 57.7404 31.0576C57.4324 31.4023 57.0401 31.6663 56.5634 31.8496C56.0867 32.033 55.5221 32.1246 54.8694 32.1246H52.1744V24.2706ZM66.1895 29.2866C66.1895 30.2913 65.9219 31.0466 65.3865 31.5526C64.8512 32.0513 64.0885 32.3006 63.0985 32.3006C62.0865 32.3006 61.2945 32.0623 60.7225 31.5856C60.1579 31.1016 59.8755 30.3353 59.8755 29.2866V24.2706H60.9205V29.2866C60.9205 29.9906 61.1075 30.526 61.4815 30.8926C61.8555 31.252 62.3945 31.4316 63.0985 31.4316C63.7659 31.4316 64.2719 31.252 64.6165 30.8926C64.9685 30.526 65.1445 29.9906 65.1445 29.2866V24.2706H66.1895V29.2866ZM72.401 26.5696C72.3423 26.005 72.137 25.598 71.785 25.3486C71.4403 25.092 70.9967 24.9636 70.454 24.9636C70.234 24.9636 70.0177 24.9856 69.805 25.0296C69.5923 25.0736 69.4017 25.147 69.233 25.2496C69.0717 25.3523 68.9397 25.4916 68.837 25.6676C68.7417 25.8363 68.694 26.049 68.694 26.3056C68.694 26.5476 68.7637 26.7456 68.903 26.8996C69.0497 27.0463 69.2403 27.1673 69.475 27.2626C69.717 27.358 69.9883 27.4386 70.289 27.5046C70.5897 27.5633 70.894 27.6293 71.202 27.7026C71.5173 27.776 71.8253 27.864 72.126 27.9666C72.4267 28.062 72.6943 28.194 72.929 28.3626C73.171 28.5313 73.3617 28.744 73.501 29.0006C73.6477 29.2573 73.721 29.58 73.721 29.9686C73.721 30.3866 73.6257 30.746 73.435 31.0466C73.2517 31.34 73.0133 31.582 72.72 31.7726C72.4267 31.956 72.0967 32.088 71.73 32.1686C71.3707 32.2566 71.0113 32.3006 70.652 32.3006C70.212 32.3006 69.794 32.2456 69.398 32.1356C69.0093 32.0256 68.6647 31.8606 68.364 31.6406C68.0707 31.4133 67.836 31.1273 67.66 30.7826C67.4913 30.4306 67.407 30.0163 67.407 29.5396H68.397C68.397 29.8696 68.4593 30.1556 68.584 30.3976C68.716 30.6323 68.8847 30.8266 69.09 30.9806C69.3027 31.1346 69.5483 31.2483 69.827 31.3216C70.1057 31.395 70.3917 31.4316 70.685 31.4316C70.9197 31.4316 71.1543 31.4096 71.389 31.3656C71.631 31.3216 71.8473 31.2483 72.038 31.1456C72.2287 31.0356 72.3827 30.889 72.5 30.7056C72.6173 30.5223 72.676 30.2876 72.676 30.0016C72.676 29.7303 72.6027 29.5103 72.456 29.3416C72.3167 29.173 72.126 29.0373 71.884 28.9346C71.6493 28.8246 71.3817 28.7366 71.081 28.6706C70.7803 28.6046 70.4723 28.5386 70.157 28.4726C69.849 28.3993 69.5447 28.3186 69.244 28.2306C68.9433 28.1353 68.672 28.0143 68.43 27.8676C68.1953 27.7136 68.0047 27.5193 67.858 27.2846C67.7187 27.0426 67.649 26.742 67.649 26.3826C67.649 25.9866 67.7297 25.6456 67.891 25.3596C68.0523 25.0663 68.265 24.828 68.529 24.6446C68.8003 24.454 69.1047 24.3146 69.442 24.2266C69.7867 24.1313 70.1387 24.0836 70.498 24.0836C70.9013 24.0836 71.2753 24.1313 71.62 24.2266C71.9647 24.322 72.2653 24.4723 72.522 24.6776C72.786 24.883 72.9913 25.1433 73.138 25.4586C73.292 25.7666 73.3763 26.137 73.391 26.5696H72.401ZM76.3438 28.8796H79.0058L77.6968 25.2166H77.6748L76.3438 28.8796ZM77.1248 24.2706H78.2798L81.3488 32.1246H80.1938L79.3358 29.7596H76.0138L75.1338 32.1246H74.0668L77.1248 24.2706ZM83.1686 27.6476H85.2586C85.8526 27.6476 86.278 27.545 86.5346 27.3396C86.7986 27.127 86.9306 26.8116 86.9306 26.3936C86.9306 26.115 86.8866 25.895 86.7986 25.7336C86.7106 25.5723 86.5896 25.4476 86.4356 25.3596C86.2816 25.2716 86.102 25.2166 85.8966 25.1946C85.6986 25.1653 85.486 25.1506 85.2586 25.1506H83.1686V27.6476ZM82.1236 24.2706H84.9726C85.1413 24.2706 85.321 24.2743 85.5116 24.2816C85.7096 24.2816 85.904 24.2926 86.0946 24.3146C86.2853 24.3293 86.4613 24.355 86.6226 24.3916C86.7913 24.4283 86.9343 24.4833 87.0516 24.5566C87.3083 24.7106 87.5246 24.9233 87.7006 25.1946C87.884 25.466 87.9756 25.7996 87.9756 26.1956C87.9756 26.6136 87.873 26.9766 87.6676 27.2846C87.4696 27.5853 87.1836 27.809 86.8096 27.9556V27.9776C87.2936 28.0803 87.664 28.3003 87.9206 28.6376C88.1773 28.975 88.3056 29.3856 88.3056 29.8696C88.3056 30.1556 88.2543 30.4343 88.1516 30.7056C88.049 30.977 87.895 31.219 87.6896 31.4316C87.4916 31.637 87.2423 31.8056 86.9416 31.9376C86.6483 32.0623 86.3073 32.1246 85.9186 32.1246H82.1236V24.2706ZM83.1686 31.2446H85.7866C86.2486 31.2446 86.608 31.12 86.8646 30.8706C87.1286 30.6213 87.2606 30.2766 87.2606 29.8366C87.2606 29.58 87.213 29.3673 87.1176 29.1986C87.0223 29.03 86.894 28.898 86.7326 28.8026C86.5786 28.7 86.399 28.6303 86.1936 28.5936C85.9883 28.5496 85.7756 28.5276 85.5556 28.5276H83.1686V31.2446ZM89.6979 24.2706H90.7429V32.1246H89.6979V24.2706ZM92.5006 24.2706H93.5456V31.2446H97.7036V32.1246H92.5006V24.2706ZM98.6569 24.2706H99.7019V32.1246H98.6569V24.2706ZM101.449 24.2706H102.56L106.696 30.6396H106.718V24.2706H107.708V32.1246H106.564L102.461 25.8216H102.439V32.1246H101.449V24.2706ZM109.398 24.2706H114.821V25.1506H110.443V27.6476H114.524V28.5276H110.443V31.2446H114.854V32.1246H109.398V24.2706Z" fill="#173148"/>
<path d="M15.9415 0.126038H0V16.25H9.19493C9.08547 19.304 8.32652 21.5444 6.93269 22.9127C5.53885 24.281 3.17809 25.102 0 25.2516V31.9945C9.85171 31.6114 15.9452 26.4593 15.9452 15.4546L15.9415 0.126038Z" fill="#173148"/>
</svg>
