<svg width="19" height="19" viewBox="0 0 19 19" fill="none" xmlns="http://www.w3.org/2000/svg">
<rect width="18" height="18" transform="translate(0.321289 0.321472)" fill="white"/>
<path fill-rule="evenodd" clip-rule="evenodd" d="M18.5466 0.0941788C18.6721 0.219711 18.6721 0.423239 18.5466 0.548772L0.548456 18.5488C0.422936 18.6743 0.219428 18.6743 0.0939088 18.5488C-0.0316106 18.4232 -0.0316101 18.2197 0.0939096 18.0942L18.0921 0.0941788C18.2176 -0.0313536 18.4211 -0.0313536 18.5466 0.0941788Z" fill="#173148"/>
<path fill-rule="evenodd" clip-rule="evenodd" d="M0.0954372 0.0941757C0.220957 -0.0313567 0.424464 -0.0313567 0.549984 0.0941757L18.5481 18.0942C18.6737 18.2197 18.6737 18.4232 18.5481 18.5488C18.4226 18.6743 18.2191 18.6743 18.0936 18.5488L0.0954372 0.548769C-0.0300823 0.423236 -0.0300823 0.219708 0.0954372 0.0941757Z" fill="#173148"/>
</svg>
