<svg width="24" height="24" viewBox="0 0 24 24" fill="none" xmlns="http://www.w3.org/2000/svg">
<path d="M8.31445 6.5C8.32533 6.49867 8.38306 6.49567 8.56055 6.56641C8.73719 6.63681 8.96582 6.75129 9.30957 6.9248L17.958 11.291C17.9608 11.2924 17.964 11.2936 17.9668 11.2949C18.343 11.4848 18.5952 11.6131 18.7715 11.7227C18.9298 11.8211 18.9662 11.8696 18.9707 11.876C19.0093 11.9553 19.0094 12.0447 18.9707 12.124C18.9655 12.1314 18.9276 12.1805 18.7705 12.2783C18.593 12.3887 18.3379 12.5182 17.958 12.71L9.30957 17.0752C8.96567 17.2488 8.73701 17.3634 8.56055 17.4336C8.38339 17.5041 8.32566 17.5014 8.31445 17.5C8.20475 17.4865 8.11413 17.431 8.05957 17.3584C8.0567 17.3539 8.0328 17.3114 8.01758 17.1543C8.00046 16.9776 8 16.7364 8 16.3662V7.63477C8 7.26444 8.00045 7.02263 8.01758 6.8457C8.03473 6.66887 8.06291 6.63716 8.05957 6.6416C8.11415 6.56897 8.20478 6.51347 8.31445 6.5Z" fill="white" stroke="white" stroke-linecap="round" stroke-linejoin="round"/>
</svg>
