<svg width="16" height="12" viewBox="0 0 16 12" fill="none" xmlns="http://www.w3.org/2000/svg">
<path d="M15.4213 1.72441C15.3316 1.3905 15.1558 1.08598 14.9115 0.841352C14.6672 0.59672 14.3629 0.420548 14.0291 0.330469C12.8004 6.70552e-08 7.875 0 7.875 0C7.875 0 2.94961 -6.70552e-08 1.7209 0.328711C1.38695 0.418498 1.0825 0.594572 0.838135 0.839249C0.593766 1.08393 0.418077 1.38859 0.328711 1.72266C-6.70552e-08 2.95312 0 5.51953 0 5.51953C0 5.51953 -6.70552e-08 8.08594 0.328711 9.31465C0.509766 9.99316 1.04414 10.5275 1.7209 10.7086C2.94961 11.0391 7.875 11.0391 7.875 11.0391C7.875 11.0391 12.8004 11.0391 14.0291 10.7086C14.7076 10.5275 15.2402 9.99316 15.4213 9.31465C15.75 8.08594 15.75 5.51953 15.75 5.51953C15.75 5.51953 15.75 2.95313 15.4213 1.72441ZM6.31055 7.875V3.16406L10.3887 5.50195L6.31055 7.875Z" fill="#173148"/>
</svg>
